<mxfile host="app.diagrams.net" modified="2024-06-26T13:56:59.831Z" agent="Mozilla/5.0 (Windows NT 10.0; Win64; x64) AppleWebKit/537.36 (KHTML, like Gecko) Chrome/126.0.0.0 Safari/537.36" etag="n7GZ0kzNQ1qVvHoCHgcz" version="24.6.3" type="github">
  <diagram name="Halaman-1" id="8JZM-Xb57Rz_vhMGzVFS">
    <mxGraphModel dx="1114" dy="591" grid="0" gridSize="10" guides="1" tooltips="1" connect="1" arrows="1" fold="1" page="0" pageScale="1" pageWidth="827" pageHeight="1169" math="0" shadow="0">
      <root>
        <mxCell id="0" />
        <mxCell id="1" parent="0" />
        <mxCell id="bcvEe_eUSaCBubZmDXUo-1" value="UMKM" style="shape=umlActor;verticalLabelPosition=bottom;verticalAlign=top;html=1;outlineConnect=0;fillColor=#FFF4C3;" vertex="1" parent="1">
          <mxGeometry x="84" y="349" width="30" height="60" as="geometry" />
        </mxCell>
        <mxCell id="bcvEe_eUSaCBubZmDXUo-2" value="Admin" style="shape=umlActor;verticalLabelPosition=bottom;verticalAlign=top;html=1;outlineConnect=0;fillColor=#FFF4C3;" vertex="1" parent="1">
          <mxGeometry x="89" y="137" width="30" height="60" as="geometry" />
        </mxCell>
        <mxCell id="bcvEe_eUSaCBubZmDXUo-3" value="User" style="shape=umlActor;verticalLabelPosition=bottom;verticalAlign=top;html=1;outlineConnect=0;fillColor=#FFF4C3;" vertex="1" parent="1">
          <mxGeometry x="639" y="244" width="30" height="60" as="geometry" />
        </mxCell>
        <mxCell id="bcvEe_eUSaCBubZmDXUo-5" value="Login" style="ellipse;whiteSpace=wrap;html=1;fillColor=#66FFFF;" vertex="1" parent="1">
          <mxGeometry x="206" y="49" width="146" height="43" as="geometry" />
        </mxCell>
        <mxCell id="bcvEe_eUSaCBubZmDXUo-6" value="Mengelola Akomodasi" style="ellipse;whiteSpace=wrap;html=1;fillColor=#66FFFF;" vertex="1" parent="1">
          <mxGeometry x="206" y="106" width="146" height="43" as="geometry" />
        </mxCell>
        <mxCell id="bcvEe_eUSaCBubZmDXUo-7" value="Mengelola Jasa" style="ellipse;whiteSpace=wrap;html=1;fillColor=#66FFFF;" vertex="1" parent="1">
          <mxGeometry x="206" y="453" width="146" height="43" as="geometry" />
        </mxCell>
        <mxCell id="bcvEe_eUSaCBubZmDXUo-8" value="Mengelola Industri&amp;nbsp;&lt;div&gt;Pariwisata&lt;/div&gt;" style="ellipse;whiteSpace=wrap;html=1;fillColor=#66FFFF;" vertex="1" parent="1">
          <mxGeometry x="206" y="510" width="146" height="43" as="geometry" />
        </mxCell>
        <mxCell id="bcvEe_eUSaCBubZmDXUo-9" value="Mengelola Kuliner" style="ellipse;whiteSpace=wrap;html=1;fillColor=#66FFFF;" vertex="1" parent="1">
          <mxGeometry x="206" y="165" width="146" height="43" as="geometry" />
        </mxCell>
        <mxCell id="bcvEe_eUSaCBubZmDXUo-10" value="Mengelola Transportasi" style="ellipse;whiteSpace=wrap;html=1;fillColor=#66FFFF;" vertex="1" parent="1">
          <mxGeometry x="206" y="221" width="146" height="43" as="geometry" />
        </mxCell>
        <mxCell id="bcvEe_eUSaCBubZmDXUo-11" value="Mengelola Pemandu" style="ellipse;whiteSpace=wrap;html=1;fillColor=#66FFFF;" vertex="1" parent="1">
          <mxGeometry x="206" y="278" width="146" height="43" as="geometry" />
        </mxCell>
        <mxCell id="bcvEe_eUSaCBubZmDXUo-12" value="Mengelola Handy craft" style="ellipse;whiteSpace=wrap;html=1;fillColor=#66FFFF;" vertex="1" parent="1">
          <mxGeometry x="206" y="339" width="146" height="43" as="geometry" />
        </mxCell>
        <mxCell id="bcvEe_eUSaCBubZmDXUo-13" value="Mengelola Event" style="ellipse;whiteSpace=wrap;html=1;fillColor=#66FFFF;" vertex="1" parent="1">
          <mxGeometry x="206" y="398" width="146" height="43" as="geometry" />
        </mxCell>
        <mxCell id="bcvEe_eUSaCBubZmDXUo-15" value="Register User" style="ellipse;whiteSpace=wrap;html=1;fillColor=#66FFFF;" vertex="1" parent="1">
          <mxGeometry x="385" y="49" width="146" height="43" as="geometry" />
        </mxCell>
        <mxCell id="bcvEe_eUSaCBubZmDXUo-16" value="Mencari Handy craft" style="ellipse;whiteSpace=wrap;html=1;fillColor=#66FFFF;" vertex="1" parent="1">
          <mxGeometry x="385" y="339" width="146" height="43" as="geometry" />
        </mxCell>
        <mxCell id="bcvEe_eUSaCBubZmDXUo-17" value="Mencari Pemandu" style="ellipse;whiteSpace=wrap;html=1;fillColor=#66FFFF;" vertex="1" parent="1">
          <mxGeometry x="385" y="281" width="146" height="43" as="geometry" />
        </mxCell>
        <mxCell id="bcvEe_eUSaCBubZmDXUo-18" value="Mencari Transportasi" style="ellipse;whiteSpace=wrap;html=1;fillColor=#66FFFF;" vertex="1" parent="1">
          <mxGeometry x="385" y="221" width="146" height="43" as="geometry" />
        </mxCell>
        <mxCell id="bcvEe_eUSaCBubZmDXUo-19" value="Mencari Industri Pariwisata" style="ellipse;whiteSpace=wrap;html=1;fillColor=#66FFFF;" vertex="1" parent="1">
          <mxGeometry x="385" y="510" width="146" height="43" as="geometry" />
        </mxCell>
        <mxCell id="bcvEe_eUSaCBubZmDXUo-20" value="Mencari Event" style="ellipse;whiteSpace=wrap;html=1;fillColor=#66FFFF;" vertex="1" parent="1">
          <mxGeometry x="385" y="398" width="146" height="43" as="geometry" />
        </mxCell>
        <mxCell id="bcvEe_eUSaCBubZmDXUo-21" value="Mencari Jasa" style="ellipse;whiteSpace=wrap;html=1;fillColor=#66FFFF;" vertex="1" parent="1">
          <mxGeometry x="385" y="453" width="146" height="43" as="geometry" />
        </mxCell>
        <mxCell id="bcvEe_eUSaCBubZmDXUo-22" value="Mencari Kuliner" style="ellipse;whiteSpace=wrap;html=1;fillColor=#66FFFF;" vertex="1" parent="1">
          <mxGeometry x="385" y="161" width="146" height="43" as="geometry" />
        </mxCell>
        <mxCell id="bcvEe_eUSaCBubZmDXUo-23" value="Mencari Akomodasi" style="ellipse;whiteSpace=wrap;html=1;fillColor=#66FFFF;" vertex="1" parent="1">
          <mxGeometry x="385" y="106" width="146" height="43" as="geometry" />
        </mxCell>
        <mxCell id="bcvEe_eUSaCBubZmDXUo-27" value="" style="endArrow=none;html=1;rounded=0;fontSize=12;startSize=8;endSize=8;curved=1;entryX=0.059;entryY=0.76;entryDx=0;entryDy=0;entryPerimeter=0;" edge="1" parent="1">
          <mxGeometry width="50" height="50" relative="1" as="geometry">
            <mxPoint x="125" y="174.66" as="sourcePoint" />
            <mxPoint x="214.61400000000003" y="80.34" as="targetPoint" />
            <Array as="points">
              <mxPoint x="159" y="137.66" />
            </Array>
          </mxGeometry>
        </mxCell>
        <mxCell id="bcvEe_eUSaCBubZmDXUo-29" value="" style="endArrow=none;html=1;rounded=0;fontSize=12;startSize=8;endSize=8;curved=1;entryX=0;entryY=0.5;entryDx=0;entryDy=0;" edge="1" parent="1" target="bcvEe_eUSaCBubZmDXUo-6">
          <mxGeometry width="50" height="50" relative="1" as="geometry">
            <mxPoint x="126" y="174" as="sourcePoint" />
            <mxPoint x="209.9860000000001" y="134.005" as="targetPoint" />
            <Array as="points" />
          </mxGeometry>
        </mxCell>
        <mxCell id="bcvEe_eUSaCBubZmDXUo-31" value="" style="endArrow=none;html=1;rounded=0;fontSize=12;startSize=8;endSize=8;curved=1;entryX=0.022;entryY=0.352;entryDx=0;entryDy=0;entryPerimeter=0;" edge="1" parent="1" target="bcvEe_eUSaCBubZmDXUo-9">
          <mxGeometry width="50" height="50" relative="1" as="geometry">
            <mxPoint x="125" y="175" as="sourcePoint" />
            <mxPoint x="206" y="179" as="targetPoint" />
            <Array as="points" />
          </mxGeometry>
        </mxCell>
        <mxCell id="bcvEe_eUSaCBubZmDXUo-32" value="" style="endArrow=none;html=1;rounded=0;fontSize=12;startSize=8;endSize=8;curved=1;entryX=0.038;entryY=0.317;entryDx=0;entryDy=0;entryPerimeter=0;" edge="1" parent="1" target="bcvEe_eUSaCBubZmDXUo-10">
          <mxGeometry width="50" height="50" relative="1" as="geometry">
            <mxPoint x="125" y="175" as="sourcePoint" />
            <mxPoint x="217" y="153" as="targetPoint" />
            <Array as="points">
              <mxPoint x="165" y="206" />
            </Array>
          </mxGeometry>
        </mxCell>
        <mxCell id="bcvEe_eUSaCBubZmDXUo-33" value="" style="endArrow=none;html=1;rounded=0;fontSize=12;startSize=8;endSize=8;curved=1;entryX=0.009;entryY=0.387;entryDx=0;entryDy=0;entryPerimeter=0;" edge="1" parent="1" target="bcvEe_eUSaCBubZmDXUo-11">
          <mxGeometry width="50" height="50" relative="1" as="geometry">
            <mxPoint x="126" y="176" as="sourcePoint" />
            <mxPoint x="232.73668065290803" y="288.5556925581676" as="targetPoint" />
            <Array as="points">
              <mxPoint x="172" y="244" />
            </Array>
          </mxGeometry>
        </mxCell>
        <mxCell id="bcvEe_eUSaCBubZmDXUo-34" value="" style="endArrow=none;html=1;rounded=0;fontSize=12;startSize=8;endSize=8;curved=1;entryX=0.009;entryY=0.409;entryDx=0;entryDy=0;entryPerimeter=0;" edge="1" parent="1" target="bcvEe_eUSaCBubZmDXUo-8">
          <mxGeometry width="50" height="50" relative="1" as="geometry">
            <mxPoint x="124" y="175" as="sourcePoint" />
            <mxPoint x="172" y="433.70588235294116" as="targetPoint" />
            <Array as="points">
              <mxPoint x="171" y="393" />
            </Array>
          </mxGeometry>
        </mxCell>
        <mxCell id="bcvEe_eUSaCBubZmDXUo-35" value="" style="endArrow=none;html=1;rounded=0;fontSize=12;startSize=8;endSize=8;curved=1;entryX=0.019;entryY=0.348;entryDx=0;entryDy=0;entryPerimeter=0;" edge="1" parent="1" target="bcvEe_eUSaCBubZmDXUo-7">
          <mxGeometry width="50" height="50" relative="1" as="geometry">
            <mxPoint x="125" y="178" as="sourcePoint" />
            <mxPoint x="185" y="366" as="targetPoint" />
            <Array as="points">
              <mxPoint x="160" y="315" />
            </Array>
          </mxGeometry>
        </mxCell>
        <mxCell id="bcvEe_eUSaCBubZmDXUo-36" value="" style="endArrow=none;html=1;rounded=0;fontSize=12;startSize=8;endSize=8;curved=1;entryX=0.033;entryY=0.323;entryDx=0;entryDy=0;entryPerimeter=0;" edge="1" parent="1" target="bcvEe_eUSaCBubZmDXUo-13">
          <mxGeometry width="50" height="50" relative="1" as="geometry">
            <mxPoint x="125" y="176" as="sourcePoint" />
            <mxPoint x="200" y="353" as="targetPoint" />
            <Array as="points" />
          </mxGeometry>
        </mxCell>
        <mxCell id="bcvEe_eUSaCBubZmDXUo-37" value="" style="endArrow=none;html=1;rounded=0;fontSize=12;startSize=8;endSize=8;curved=1;entryX=0.009;entryY=0.387;entryDx=0;entryDy=0;entryPerimeter=0;" edge="1" parent="1">
          <mxGeometry width="50" height="50" relative="1" as="geometry">
            <mxPoint x="126" y="176" as="sourcePoint" />
            <mxPoint x="212" y="352" as="targetPoint" />
            <Array as="points">
              <mxPoint x="182" y="301" />
            </Array>
          </mxGeometry>
        </mxCell>
        <mxCell id="bcvEe_eUSaCBubZmDXUo-38" value="" style="endArrow=none;html=1;rounded=0;fontSize=12;startSize=8;endSize=8;curved=1;entryX=0;entryY=0.5;entryDx=0;entryDy=0;" edge="1" parent="1">
          <mxGeometry width="50" height="50" relative="1" as="geometry">
            <mxPoint x="125" y="174" as="sourcePoint" />
            <mxPoint x="385.0000000000001" y="69" as="targetPoint" />
            <Array as="points">
              <mxPoint x="261" y="124.5" />
            </Array>
          </mxGeometry>
        </mxCell>
        <mxCell id="bcvEe_eUSaCBubZmDXUo-39" value="" style="endArrow=none;html=1;rounded=0;fontSize=12;startSize=8;endSize=8;curved=1;entryX=0;entryY=0.5;entryDx=0;entryDy=0;" edge="1" parent="1" target="bcvEe_eUSaCBubZmDXUo-12">
          <mxGeometry width="50" height="50" relative="1" as="geometry">
            <mxPoint x="118" y="381" as="sourcePoint" />
            <mxPoint x="206" y="365" as="targetPoint" />
            <Array as="points" />
          </mxGeometry>
        </mxCell>
        <mxCell id="bcvEe_eUSaCBubZmDXUo-40" value="" style="endArrow=none;html=1;rounded=0;fontSize=12;startSize=8;endSize=8;curved=1;entryX=0.073;entryY=0.762;entryDx=0;entryDy=0;entryPerimeter=0;" edge="1" parent="1" target="bcvEe_eUSaCBubZmDXUo-9">
          <mxGeometry width="50" height="50" relative="1" as="geometry">
            <mxPoint x="119" y="379" as="sourcePoint" />
            <mxPoint x="206" y="366" as="targetPoint" />
            <Array as="points" />
          </mxGeometry>
        </mxCell>
        <mxCell id="bcvEe_eUSaCBubZmDXUo-41" value="" style="endArrow=none;html=1;rounded=0;fontSize=12;startSize=8;endSize=8;curved=1;entryX=0.076;entryY=0.751;entryDx=0;entryDy=0;entryPerimeter=0;" edge="1" parent="1" target="bcvEe_eUSaCBubZmDXUo-5">
          <mxGeometry width="50" height="50" relative="1" as="geometry">
            <mxPoint x="117" y="380" as="sourcePoint" />
            <mxPoint x="216" y="195" as="targetPoint" />
            <Array as="points" />
          </mxGeometry>
        </mxCell>
        <mxCell id="bcvEe_eUSaCBubZmDXUo-42" value="" style="endArrow=none;html=1;rounded=0;fontSize=12;startSize=8;endSize=8;curved=1;entryX=0;entryY=0.5;entryDx=0;entryDy=0;" edge="1" parent="1" target="bcvEe_eUSaCBubZmDXUo-15">
          <mxGeometry width="50" height="50" relative="1" as="geometry">
            <mxPoint x="117" y="381" as="sourcePoint" />
            <mxPoint x="379" y="66" as="targetPoint" />
            <Array as="points" />
          </mxGeometry>
        </mxCell>
        <mxCell id="bcvEe_eUSaCBubZmDXUo-43" value="" style="endArrow=none;html=1;rounded=0;fontSize=12;startSize=8;endSize=8;curved=1;entryX=0.065;entryY=0.238;entryDx=0;entryDy=0;entryPerimeter=0;" edge="1" parent="1" target="bcvEe_eUSaCBubZmDXUo-7">
          <mxGeometry width="50" height="50" relative="1" as="geometry">
            <mxPoint x="117" y="381" as="sourcePoint" />
            <mxPoint x="216" y="375" as="targetPoint" />
            <Array as="points" />
          </mxGeometry>
        </mxCell>
        <mxCell id="bcvEe_eUSaCBubZmDXUo-44" value="" style="endArrow=none;html=1;rounded=0;fontSize=12;startSize=8;endSize=8;curved=1;exitX=0.98;exitY=0.632;exitDx=0;exitDy=0;exitPerimeter=0;" edge="1" parent="1" source="bcvEe_eUSaCBubZmDXUo-15">
          <mxGeometry width="50" height="50" relative="1" as="geometry">
            <mxPoint x="529" y="77" as="sourcePoint" />
            <mxPoint x="628" y="280" as="targetPoint" />
          </mxGeometry>
        </mxCell>
        <mxCell id="bcvEe_eUSaCBubZmDXUo-45" value="" style="endArrow=none;html=1;rounded=0;fontSize=12;startSize=8;endSize=8;curved=1;exitX=0.984;exitY=0.623;exitDx=0;exitDy=0;exitPerimeter=0;" edge="1" parent="1" source="bcvEe_eUSaCBubZmDXUo-5">
          <mxGeometry width="50" height="50" relative="1" as="geometry">
            <mxPoint x="538" y="86" as="sourcePoint" />
            <mxPoint x="630" y="283" as="targetPoint" />
          </mxGeometry>
        </mxCell>
        <mxCell id="bcvEe_eUSaCBubZmDXUo-46" value="" style="endArrow=none;html=1;rounded=0;fontSize=12;startSize=8;endSize=8;curved=1;exitX=1;exitY=0.5;exitDx=0;exitDy=0;" edge="1" parent="1" source="bcvEe_eUSaCBubZmDXUo-22">
          <mxGeometry width="50" height="50" relative="1" as="geometry">
            <mxPoint x="514" y="164" as="sourcePoint" />
            <mxPoint x="630" y="282" as="targetPoint" />
          </mxGeometry>
        </mxCell>
        <mxCell id="bcvEe_eUSaCBubZmDXUo-47" value="" style="endArrow=none;html=1;rounded=0;fontSize=12;startSize=8;endSize=8;curved=1;exitX=1;exitY=0.5;exitDx=0;exitDy=0;" edge="1" parent="1" source="bcvEe_eUSaCBubZmDXUo-23">
          <mxGeometry width="50" height="50" relative="1" as="geometry">
            <mxPoint x="548" y="96" as="sourcePoint" />
            <mxPoint x="629" y="286" as="targetPoint" />
          </mxGeometry>
        </mxCell>
        <mxCell id="bcvEe_eUSaCBubZmDXUo-48" value="" style="endArrow=none;html=1;rounded=0;fontSize=12;startSize=8;endSize=8;curved=1;" edge="1" parent="1">
          <mxGeometry width="50" height="50" relative="1" as="geometry">
            <mxPoint x="528" y="248" as="sourcePoint" />
            <mxPoint x="632" y="285" as="targetPoint" />
          </mxGeometry>
        </mxCell>
        <mxCell id="bcvEe_eUSaCBubZmDXUo-49" value="" style="endArrow=none;html=1;rounded=0;fontSize=12;startSize=8;endSize=8;curved=1;exitX=1;exitY=0.5;exitDx=0;exitDy=0;" edge="1" parent="1" source="bcvEe_eUSaCBubZmDXUo-20">
          <mxGeometry width="50" height="50" relative="1" as="geometry">
            <mxPoint x="538" y="258" as="sourcePoint" />
            <mxPoint x="631" y="285" as="targetPoint" />
          </mxGeometry>
        </mxCell>
        <mxCell id="bcvEe_eUSaCBubZmDXUo-50" value="" style="endArrow=none;html=1;rounded=0;fontSize=12;startSize=8;endSize=8;curved=1;" edge="1" parent="1">
          <mxGeometry width="50" height="50" relative="1" as="geometry">
            <mxPoint x="530" y="358" as="sourcePoint" />
            <mxPoint x="631" y="283" as="targetPoint" />
          </mxGeometry>
        </mxCell>
        <mxCell id="bcvEe_eUSaCBubZmDXUo-51" value="" style="endArrow=none;html=1;rounded=0;fontSize=12;startSize=8;endSize=8;curved=1;exitX=1;exitY=0.5;exitDx=0;exitDy=0;" edge="1" parent="1" source="bcvEe_eUSaCBubZmDXUo-17">
          <mxGeometry width="50" height="50" relative="1" as="geometry">
            <mxPoint x="558" y="278" as="sourcePoint" />
            <mxPoint x="628" y="284" as="targetPoint" />
          </mxGeometry>
        </mxCell>
        <mxCell id="bcvEe_eUSaCBubZmDXUo-52" value="" style="endArrow=none;html=1;rounded=0;fontSize=12;startSize=8;endSize=8;curved=1;exitX=1;exitY=0.5;exitDx=0;exitDy=0;" edge="1" parent="1" source="bcvEe_eUSaCBubZmDXUo-21">
          <mxGeometry width="50" height="50" relative="1" as="geometry">
            <mxPoint x="541" y="430" as="sourcePoint" />
            <mxPoint x="631" y="283" as="targetPoint" />
          </mxGeometry>
        </mxCell>
        <mxCell id="bcvEe_eUSaCBubZmDXUo-53" value="" style="endArrow=none;html=1;rounded=0;fontSize=12;startSize=8;endSize=8;curved=1;exitX=1;exitY=0.5;exitDx=0;exitDy=0;" edge="1" parent="1" source="bcvEe_eUSaCBubZmDXUo-19">
          <mxGeometry width="50" height="50" relative="1" as="geometry">
            <mxPoint x="551" y="440" as="sourcePoint" />
            <mxPoint x="631" y="283" as="targetPoint" />
          </mxGeometry>
        </mxCell>
      </root>
    </mxGraphModel>
  </diagram>
</mxfile>
